<svg xmlns="http://www.w3.org/2000/svg" xmlns:xlink="http://www.w3.org/1999/xlink" width="500" zoomAndPan="magnify" viewBox="0 0 375 374.999991" height="500" preserveAspectRatio="xMidYMid meet" version="1.0"><path fill="#6f7c7d" d="M 100.003906 106.265625 L 121.429688 106.265625 C 122.132812 106.265625 122.832031 106.332031 123.519531 106.46875 C 124.210938 106.609375 124.882812 106.8125 125.53125 107.082031 C 126.179688 107.347656 126.796875 107.679688 127.382812 108.070312 C 127.96875 108.460938 128.507812 108.90625 129.007812 109.402344 C 129.503906 109.902344 129.949219 110.441406 130.339844 111.027344 C 130.730469 111.613281 131.058594 112.230469 131.328125 112.878906 C 131.597656 113.53125 131.800781 114.199219 131.9375 114.890625 C 132.078125 115.582031 132.144531 116.277344 132.144531 116.980469 C 132.144531 117.683594 132.078125 118.382812 131.9375 119.070312 C 131.800781 119.761719 131.597656 120.433594 131.328125 121.082031 C 131.058594 121.734375 130.730469 122.351562 130.339844 122.933594 C 129.949219 123.519531 129.503906 124.0625 129.007812 124.558594 C 128.507812 125.058594 127.96875 125.5 127.382812 125.890625 C 126.796875 126.285156 126.179688 126.613281 125.53125 126.882812 C 124.882812 127.152344 124.210938 127.355469 123.519531 127.492188 C 122.832031 127.628906 122.132812 127.699219 121.429688 127.699219 L 100.003906 127.699219 C 99.300781 127.699219 98.601562 127.628906 97.914062 127.492188 C 97.222656 127.355469 96.554688 127.152344 95.902344 126.882812 C 95.253906 126.613281 94.636719 126.285156 94.050781 125.890625 C 93.464844 125.5 92.925781 125.058594 92.425781 124.558594 C 91.929688 124.0625 91.484375 123.519531 91.09375 122.933594 C 90.703125 122.351562 90.375 121.734375 90.105469 121.082031 C 89.835938 120.433594 89.632812 119.761719 89.496094 119.070312 C 89.359375 118.382812 89.289062 117.683594 89.289062 116.980469 C 89.289062 116.277344 89.359375 115.582031 89.496094 114.890625 C 89.632812 114.199219 89.835938 113.53125 90.105469 112.878906 C 90.375 112.230469 90.703125 111.613281 91.09375 111.027344 C 91.484375 110.441406 91.929688 109.902344 92.425781 109.402344 C 92.925781 108.90625 93.464844 108.460938 94.050781 108.070312 C 94.636719 107.679688 95.253906 107.347656 95.902344 107.082031 C 96.554688 106.8125 97.222656 106.609375 97.914062 106.46875 C 98.601562 106.332031 99.300781 106.265625 100.003906 106.265625 Z M 100.003906 106.265625 " fill-opacity="1" fill-rule="nonzero"/><path fill="#0a3051" d="M 166.070312 101.800781 L 215.175781 101.800781 C 215.734375 101.800781 216.289062 101.824219 216.839844 101.878906 C 217.394531 101.933594 217.941406 102.015625 218.488281 102.125 C 219.03125 102.234375 219.570312 102.367188 220.101562 102.53125 C 220.632812 102.691406 221.15625 102.878906 221.667969 103.089844 C 222.183594 103.304688 222.683594 103.539062 223.175781 103.800781 C 223.664062 104.066406 224.140625 104.351562 224.601562 104.660156 C 225.0625 104.96875 225.507812 105.296875 225.9375 105.652344 C 226.367188 106.003906 226.78125 106.375 227.171875 106.769531 C 227.566406 107.160156 227.9375 107.574219 228.289062 108.003906 C 228.644531 108.433594 228.972656 108.878906 229.28125 109.339844 C 229.589844 109.800781 229.875 110.277344 230.136719 110.769531 C 230.398438 111.257812 230.636719 111.761719 230.851562 112.273438 C 231.0625 112.789062 231.25 113.308594 231.410156 113.84375 C 231.570312 114.375 231.707031 114.910156 231.816406 115.457031 C 231.921875 116.003906 232.003906 116.550781 232.058594 117.105469 C 232.113281 117.65625 232.140625 118.210938 232.140625 118.769531 C 232.140625 119.324219 232.113281 119.878906 232.058594 120.429688 C 232.003906 120.984375 231.921875 121.53125 231.816406 122.078125 C 231.707031 122.625 231.570312 123.160156 231.410156 123.695312 C 231.25 124.226562 231.0625 124.746094 230.851562 125.261719 C 230.636719 125.773438 230.398438 126.277344 230.136719 126.765625 C 229.875 127.257812 229.589844 127.734375 229.28125 128.195312 C 228.972656 128.65625 228.644531 129.101562 228.289062 129.53125 C 227.9375 129.960938 227.566406 130.375 227.171875 130.765625 C 226.78125 131.160156 226.367188 131.53125 225.9375 131.882812 C 225.507812 132.238281 225.0625 132.566406 224.601562 132.875 C 224.140625 133.183594 223.664062 133.472656 223.175781 133.734375 C 222.683594 133.996094 222.183594 134.230469 221.667969 134.445312 C 221.15625 134.65625 220.632812 134.84375 220.101562 135.003906 C 219.570312 135.167969 219.03125 135.300781 218.488281 135.410156 C 217.941406 135.519531 217.394531 135.601562 216.839844 135.65625 C 216.289062 135.710938 215.734375 135.738281 215.175781 135.738281 L 166.070312 135.738281 C 165.515625 135.738281 164.960938 135.710938 164.410156 135.65625 C 163.855469 135.601562 163.308594 135.519531 162.761719 135.410156 C 162.21875 135.300781 161.679688 135.167969 161.148438 135.003906 C 160.617188 134.84375 160.09375 134.65625 159.582031 134.445312 C 159.066406 134.230469 158.566406 133.996094 158.074219 133.734375 C 157.585938 133.472656 157.109375 133.183594 156.648438 132.875 C 156.1875 132.566406 155.738281 132.238281 155.3125 131.882812 C 154.882812 131.53125 154.46875 131.160156 154.078125 130.765625 C 153.683594 130.375 153.3125 129.960938 152.960938 129.53125 C 152.605469 129.101562 152.277344 128.65625 151.96875 128.195312 C 151.660156 127.734375 151.375 127.257812 151.113281 126.765625 C 150.851562 126.277344 150.613281 125.773438 150.398438 125.261719 C 150.1875 124.746094 150 124.226562 149.839844 123.695312 C 149.679688 123.160156 149.542969 122.625 149.433594 122.078125 C 149.328125 121.53125 149.246094 120.984375 149.191406 120.429688 C 149.136719 119.878906 149.109375 119.324219 149.109375 118.769531 C 149.109375 118.210938 149.136719 117.65625 149.191406 117.105469 C 149.246094 116.550781 149.328125 116.003906 149.433594 115.457031 C 149.542969 114.910156 149.679688 114.375 149.839844 113.84375 C 150 113.308594 150.1875 112.789062 150.398438 112.273438 C 150.613281 111.761719 150.851562 111.257812 151.113281 110.769531 C 151.375 110.277344 151.660156 109.800781 151.96875 109.339844 C 152.277344 108.878906 152.605469 108.433594 152.960938 108.003906 C 153.3125 107.574219 153.683594 107.160156 154.078125 106.769531 C 154.46875 106.375 154.882812 106.003906 155.3125 105.652344 C 155.738281 105.296875 156.1875 104.96875 156.648438 104.660156 C 157.109375 104.351562 157.585938 104.066406 158.074219 103.800781 C 158.566406 103.539062 159.066406 103.304688 159.582031 103.089844 C 160.09375 102.878906 160.617188 102.691406 161.148438 102.53125 C 161.679688 102.367188 162.21875 102.234375 162.761719 102.125 C 163.308594 102.015625 163.855469 101.933594 164.410156 101.878906 C 164.960938 101.824219 165.515625 101.800781 166.070312 101.800781 Z M 166.070312 101.800781 " fill-opacity="1" fill-rule="nonzero"/><path fill="#0a3051" d="M 166.519531 91.976562 L 214.730469 91.976562 C 215.300781 91.976562 215.871094 92.003906 216.4375 92.058594 C 217.003906 92.113281 217.566406 92.199219 218.128906 92.308594 C 218.6875 92.421875 219.238281 92.558594 219.785156 92.726562 C 220.332031 92.890625 220.867188 93.082031 221.394531 93.300781 C 221.921875 93.519531 222.433594 93.761719 222.9375 94.03125 C 223.441406 94.300781 223.929688 94.59375 224.402344 94.910156 C 224.878906 95.226562 225.335938 95.566406 225.777344 95.929688 C 226.214844 96.289062 226.636719 96.671875 227.042969 97.074219 C 227.445312 97.480469 227.828125 97.902344 228.1875 98.34375 C 228.550781 98.78125 228.890625 99.242188 229.207031 99.714844 C 229.523438 100.1875 229.816406 100.675781 230.085938 101.179688 C 230.355469 101.683594 230.597656 102.199219 230.816406 102.726562 C 231.035156 103.253906 231.226562 103.789062 231.390625 104.335938 C 231.558594 104.878906 231.695312 105.433594 231.804688 105.992188 C 231.917969 106.550781 232 107.117188 232.058594 107.683594 C 232.113281 108.25 232.140625 108.820312 232.140625 109.390625 C 232.140625 109.960938 232.113281 110.53125 232.058594 111.097656 C 232 111.664062 231.917969 112.226562 231.804688 112.789062 C 231.695312 113.347656 231.558594 113.898438 231.390625 114.445312 C 231.226562 114.992188 231.035156 115.527344 230.816406 116.054688 C 230.597656 116.582031 230.355469 117.097656 230.085938 117.601562 C 229.816406 118.101562 229.523438 118.589844 229.207031 119.066406 C 228.890625 119.539062 228.550781 119.996094 228.1875 120.4375 C 227.828125 120.878906 227.445312 121.300781 227.042969 121.703125 C 226.636719 122.109375 226.214844 122.492188 225.777344 122.851562 C 225.335938 123.214844 224.878906 123.554688 224.402344 123.871094 C 223.929688 124.1875 223.441406 124.480469 222.9375 124.75 C 222.433594 125.019531 221.921875 125.261719 221.394531 125.480469 C 220.867188 125.699219 220.332031 125.890625 219.785156 126.054688 C 219.238281 126.222656 218.6875 126.359375 218.128906 126.472656 C 217.566406 126.582031 217.003906 126.664062 216.4375 126.722656 C 215.871094 126.777344 215.300781 126.804688 214.730469 126.804688 L 166.519531 126.804688 C 165.949219 126.804688 165.378906 126.777344 164.8125 126.722656 C 164.246094 126.664062 163.679688 126.582031 163.121094 126.472656 C 162.5625 126.359375 162.011719 126.222656 161.464844 126.054688 C 160.917969 125.890625 160.382812 125.699219 159.855469 125.480469 C 159.328125 125.261719 158.816406 125.019531 158.3125 124.75 C 157.808594 124.480469 157.320312 124.1875 156.847656 123.871094 C 156.371094 123.554688 155.914062 123.214844 155.472656 122.851562 C 155.03125 122.492188 154.609375 122.109375 154.207031 121.703125 C 153.804688 121.300781 153.421875 120.878906 153.058594 120.4375 C 152.699219 119.996094 152.359375 119.539062 152.042969 119.066406 C 151.726562 118.589844 151.433594 118.101562 151.164062 117.601562 C 150.894531 117.097656 150.652344 116.582031 150.433594 116.054688 C 150.214844 115.527344 150.023438 114.992188 149.859375 114.445312 C 149.691406 113.898438 149.554688 113.347656 149.441406 112.789062 C 149.332031 112.226562 149.25 111.664062 149.191406 111.097656 C 149.136719 110.53125 149.109375 109.960938 149.109375 109.390625 C 149.109375 108.820312 149.136719 108.25 149.191406 107.683594 C 149.25 107.117188 149.332031 106.550781 149.441406 105.992188 C 149.554688 105.433594 149.691406 104.878906 149.859375 104.335938 C 150.023438 103.789062 150.214844 103.253906 150.433594 102.726562 C 150.652344 102.199219 150.894531 101.683594 151.164062 101.179688 C 151.433594 100.675781 151.726562 100.1875 152.042969 99.714844 C 152.359375 99.242188 152.699219 98.78125 153.058594 98.34375 C 153.421875 97.902344 153.804688 97.480469 154.207031 97.074219 C 154.609375 96.671875 155.03125 96.289062 155.472656 95.929688 C 155.914062 95.566406 156.371094 95.226562 156.847656 94.910156 C 157.320312 94.59375 157.808594 94.300781 158.3125 94.03125 C 158.816406 93.761719 159.328125 93.519531 159.855469 93.300781 C 160.382812 93.082031 160.917969 92.890625 161.464844 92.726562 C 162.011719 92.558594 162.5625 92.421875 163.121094 92.308594 C 163.679688 92.199219 164.246094 92.113281 164.8125 92.058594 C 165.378906 92.003906 165.949219 91.976562 166.519531 91.976562 Z M 166.519531 91.976562 " fill-opacity="1" fill-rule="nonzero"/><path fill="#0a3051" d="M 88.398438 115.195312 L 283.925781 115.195312 C 284.832031 115.195312 285.734375 115.238281 286.636719 115.328125 C 287.539062 115.417969 288.433594 115.550781 289.324219 115.726562 C 290.214844 115.902344 291.089844 116.125 291.960938 116.386719 C 292.828125 116.652344 293.679688 116.957031 294.515625 117.300781 C 295.355469 117.648438 296.171875 118.035156 296.972656 118.464844 C 297.769531 118.890625 298.546875 119.355469 299.300781 119.859375 C 300.054688 120.363281 300.78125 120.90625 301.484375 121.480469 C 302.183594 122.054688 302.855469 122.664062 303.496094 123.304688 C 304.136719 123.945312 304.746094 124.617188 305.320312 125.316406 C 305.894531 126.019531 306.433594 126.746094 306.9375 127.5 C 307.441406 128.253906 307.90625 129.03125 308.335938 129.832031 C 308.761719 130.628906 309.148438 131.449219 309.496094 132.285156 C 309.84375 133.125 310.148438 133.976562 310.410156 134.84375 C 310.671875 135.710938 310.894531 136.589844 311.070312 137.480469 C 311.246094 138.371094 311.378906 139.265625 311.46875 140.167969 C 311.558594 141.070312 311.601562 141.972656 311.601562 142.882812 L 311.601562 238.441406 C 311.601562 239.347656 311.558594 240.253906 311.46875 241.15625 C 311.378906 242.058594 311.246094 242.953125 311.070312 243.84375 C 310.894531 244.734375 310.671875 245.609375 310.410156 246.480469 C 310.148438 247.347656 309.84375 248.199219 309.496094 249.035156 C 309.148438 249.875 308.761719 250.691406 308.335938 251.492188 C 307.90625 252.292969 307.441406 253.070312 306.9375 253.824219 C 306.433594 254.578125 305.894531 255.304688 305.320312 256.003906 C 304.746094 256.707031 304.136719 257.378906 303.496094 258.019531 C 302.855469 258.660156 302.183594 259.269531 301.484375 259.84375 C 300.78125 260.417969 300.054688 260.957031 299.300781 261.460938 C 298.546875 261.964844 297.769531 262.429688 296.972656 262.859375 C 296.171875 263.285156 295.355469 263.671875 294.515625 264.019531 C 293.679688 264.367188 292.828125 264.671875 291.960938 264.9375 C 291.089844 265.199219 290.214844 265.417969 289.324219 265.597656 C 288.433594 265.773438 287.539062 265.90625 286.636719 265.996094 C 285.734375 266.082031 284.832031 266.128906 283.925781 266.128906 L 88.398438 266.128906 C 87.492188 266.128906 86.585938 266.082031 85.683594 265.996094 C 84.78125 265.90625 83.886719 265.773438 82.996094 265.597656 C 82.109375 265.417969 81.230469 265.199219 80.363281 264.9375 C 79.496094 264.671875 78.640625 264.367188 77.804688 264.019531 C 76.96875 263.671875 76.148438 263.285156 75.351562 262.859375 C 74.550781 262.429688 73.773438 261.964844 73.019531 261.460938 C 72.265625 260.957031 71.539062 260.417969 70.839844 259.84375 C 70.136719 259.269531 69.464844 258.660156 68.824219 258.019531 C 68.183594 257.378906 67.578125 256.707031 67 256.003906 C 66.425781 255.304688 65.886719 254.578125 65.382812 253.824219 C 64.878906 253.070312 64.414062 252.292969 63.988281 251.492188 C 63.558594 250.691406 63.171875 249.875 62.824219 249.035156 C 62.480469 248.199219 62.175781 247.347656 61.910156 246.480469 C 61.648438 245.609375 61.429688 244.734375 61.25 243.84375 C 61.074219 242.953125 60.941406 242.058594 60.851562 241.15625 C 60.761719 240.253906 60.71875 239.347656 60.71875 238.441406 L 60.71875 142.882812 C 60.71875 141.972656 60.761719 141.070312 60.851562 140.167969 C 60.941406 139.265625 61.074219 138.371094 61.25 137.480469 C 61.429688 136.589844 61.648438 135.710938 61.910156 134.84375 C 62.175781 133.976562 62.480469 133.125 62.824219 132.285156 C 63.171875 131.449219 63.558594 130.628906 63.988281 129.832031 C 64.414062 129.03125 64.878906 128.253906 65.382812 127.5 C 65.886719 126.746094 66.425781 126.019531 67 125.316406 C 67.578125 124.617188 68.183594 123.945312 68.824219 123.304688 C 69.464844 122.664062 70.136719 122.054688 70.839844 121.480469 C 71.539062 120.90625 72.265625 120.363281 73.019531 119.859375 C 73.773438 119.355469 74.550781 118.890625 75.351562 118.464844 C 76.148438 118.035156 76.96875 117.648438 77.804688 117.300781 C 78.640625 116.957031 79.496094 116.652344 80.363281 116.386719 C 81.230469 116.125 82.109375 115.902344 82.996094 115.726562 C 83.886719 115.550781 84.78125 115.417969 85.683594 115.328125 C 86.585938 115.238281 87.492188 115.195312 88.398438 115.195312 Z M 88.398438 115.195312 " fill-opacity="1" fill-rule="nonzero"/><path fill="#114675" d="M 60.71875 180.910156 C 60.71875 166.320312 72.980469 154.492188 88.105469 154.492188 L 284.214844 154.492188 C 299.339844 154.492188 311.601562 166.320312 311.601562 180.910156 L 311.601562 239.710938 C 311.601562 254.300781 299.339844 266.128906 284.214844 266.128906 L 88.105469 266.128906 C 72.980469 266.128906 60.71875 254.300781 60.71875 239.710938 Z M 60.71875 180.910156 " fill-opacity="1" fill-rule="nonzero"/><path fill="#c6d7d9" d="M 234.355469 190.660156 C 234.355469 192.167969 234.277344 193.671875 234.121094 195.167969 C 233.96875 196.667969 233.738281 198.15625 233.429688 199.632812 C 233.125 201.113281 232.742188 202.570312 232.289062 204.011719 C 231.832031 205.453125 231.300781 206.871094 230.703125 208.261719 C 230.101562 209.65625 229.429688 211.015625 228.6875 212.34375 C 227.949219 213.671875 227.140625 214.960938 226.265625 216.214844 C 225.394531 217.46875 224.460938 218.675781 223.460938 219.839844 C 222.464844 221.003906 221.410156 222.121094 220.300781 223.183594 C 219.191406 224.25 218.027344 225.261719 216.8125 226.214844 C 215.597656 227.171875 214.335938 228.066406 213.03125 228.90625 C 211.722656 229.742188 210.378906 230.515625 208.992188 231.226562 C 207.605469 231.933594 206.1875 232.578125 204.734375 233.15625 C 203.285156 233.730469 201.804688 234.238281 200.300781 234.675781 C 198.796875 235.113281 197.277344 235.476562 195.734375 235.773438 C 194.191406 236.066406 192.640625 236.285156 191.078125 236.433594 C 189.511719 236.582031 187.945312 236.65625 186.375 236.65625 C 184.804688 236.65625 183.234375 236.582031 181.671875 236.433594 C 180.109375 236.285156 178.554688 236.066406 177.015625 235.773438 C 175.472656 235.476562 173.949219 235.113281 172.445312 234.675781 C 170.941406 234.238281 169.464844 233.730469 168.011719 233.15625 C 166.5625 232.578125 165.144531 231.933594 163.757812 231.226562 C 162.371094 230.515625 161.023438 229.742188 159.71875 228.90625 C 158.410156 228.066406 157.152344 227.171875 155.9375 226.214844 C 154.722656 225.261719 153.558594 224.25 152.449219 223.183594 C 151.335938 222.121094 150.28125 221.003906 149.285156 219.839844 C 148.289062 218.675781 147.355469 217.46875 146.480469 216.214844 C 145.609375 214.960938 144.800781 213.671875 144.058594 212.34375 C 143.320312 211.015625 142.648438 209.65625 142.046875 208.261719 C 141.445312 206.871094 140.917969 205.453125 140.460938 204.011719 C 140.003906 202.570312 139.625 201.113281 139.316406 199.632812 C 139.011719 198.15625 138.78125 196.667969 138.625 195.167969 C 138.472656 193.671875 138.394531 192.167969 138.394531 190.660156 C 138.394531 189.15625 138.472656 187.652344 138.625 186.152344 C 138.78125 184.652344 139.011719 183.164062 139.316406 181.6875 C 139.625 180.210938 140.003906 178.75 140.460938 177.308594 C 140.917969 175.867188 141.445312 174.453125 142.046875 173.058594 C 142.648438 171.667969 143.320312 170.308594 144.058594 168.980469 C 144.800781 167.652344 145.609375 166.359375 146.480469 165.109375 C 147.355469 163.855469 148.289062 162.648438 149.285156 161.484375 C 150.28125 160.320312 151.335938 159.203125 152.449219 158.136719 C 153.558594 157.074219 154.722656 156.0625 155.9375 155.109375 C 157.152344 154.152344 158.410156 153.253906 159.71875 152.417969 C 161.023438 151.582031 162.371094 150.808594 163.757812 150.097656 C 165.144531 149.386719 166.5625 148.746094 168.011719 148.167969 C 169.464844 147.59375 170.941406 147.085938 172.445312 146.648438 C 173.949219 146.210938 175.472656 145.84375 177.015625 145.550781 C 178.554688 145.257812 180.109375 145.035156 181.671875 144.890625 C 183.234375 144.742188 184.804688 144.667969 186.375 144.667969 C 187.945312 144.667969 189.511719 144.742188 191.078125 144.890625 C 192.640625 145.035156 194.191406 145.257812 195.734375 145.550781 C 197.277344 145.84375 198.796875 146.210938 200.300781 146.648438 C 201.804688 147.085938 203.285156 147.59375 204.734375 148.167969 C 206.1875 148.746094 207.605469 149.386719 208.992188 150.097656 C 210.378906 150.808594 211.722656 151.582031 213.03125 152.417969 C 214.335938 153.253906 215.597656 154.152344 216.8125 155.109375 C 218.027344 156.0625 219.191406 157.074219 220.300781 158.136719 C 221.410156 159.203125 222.464844 160.320312 223.460938 161.484375 C 224.460938 162.648438 225.394531 163.855469 226.265625 165.109375 C 227.140625 166.359375 227.949219 167.652344 228.6875 168.980469 C 229.429688 170.308594 230.101562 171.667969 230.703125 173.058594 C 231.300781 174.453125 231.832031 175.867188 232.289062 177.308594 C 232.742188 178.75 233.125 180.210938 233.429688 181.6875 C 233.738281 183.164062 233.96875 184.652344 234.121094 186.152344 C 234.277344 187.652344 234.355469 189.15625 234.355469 190.660156 Z M 234.355469 190.660156 " fill-opacity="1" fill-rule="nonzero"/><path fill="#0a3051" d="M 224.535156 191.109375 C 224.535156 192.308594 224.472656 193.503906 224.351562 194.695312 C 224.234375 195.890625 224.050781 197.074219 223.8125 198.25 C 223.574219 199.429688 223.273438 200.589844 222.917969 201.738281 C 222.5625 202.886719 222.148438 204.011719 221.679688 205.121094 C 221.207031 206.230469 220.683594 207.3125 220.105469 208.367188 C 219.527344 209.425781 218.894531 210.453125 218.214844 211.453125 C 217.53125 212.449219 216.800781 213.410156 216.023438 214.335938 C 215.242188 215.265625 214.417969 216.152344 213.550781 217 C 212.683594 217.847656 211.773438 218.652344 210.824219 219.414062 C 209.875 220.175781 208.890625 220.886719 207.867188 221.554688 C 206.847656 222.21875 205.792969 222.835938 204.710938 223.402344 C 203.628906 223.964844 202.519531 224.480469 201.386719 224.9375 C 200.25 225.394531 199.09375 225.800781 197.921875 226.148438 C 196.746094 226.496094 195.554688 226.789062 194.351562 227.019531 C 193.144531 227.253906 191.933594 227.429688 190.710938 227.546875 C 189.488281 227.667969 188.261719 227.726562 187.035156 227.726562 C 185.808594 227.726562 184.582031 227.667969 183.359375 227.546875 C 182.136719 227.429688 180.921875 227.253906 179.71875 227.019531 C 178.515625 226.789062 177.324219 226.496094 176.148438 226.148438 C 174.972656 225.800781 173.820312 225.394531 172.683594 224.9375 C 171.550781 224.480469 170.441406 223.964844 169.359375 223.402344 C 168.273438 222.835938 167.222656 222.21875 166.203125 221.554688 C 165.179688 220.886719 164.195312 220.175781 163.246094 219.414062 C 162.296875 218.652344 161.386719 217.847656 160.519531 217 C 159.652344 216.152344 158.828125 215.265625 158.046875 214.335938 C 157.269531 213.410156 156.539062 212.449219 155.855469 211.453125 C 155.171875 210.453125 154.542969 209.425781 153.964844 208.367188 C 153.386719 207.3125 152.859375 206.230469 152.390625 205.121094 C 151.921875 204.011719 151.507812 202.886719 151.152344 201.738281 C 150.792969 200.589844 150.496094 199.429688 150.257812 198.25 C 150.015625 197.074219 149.835938 195.890625 149.71875 194.695312 C 149.597656 193.503906 149.535156 192.308594 149.535156 191.109375 C 149.535156 189.910156 149.597656 188.710938 149.71875 187.519531 C 149.835938 186.324219 150.015625 185.140625 150.257812 183.964844 C 150.496094 182.789062 150.792969 181.625 151.152344 180.480469 C 151.507812 179.332031 151.921875 178.203125 152.390625 177.09375 C 152.859375 175.988281 153.386719 174.90625 153.964844 173.847656 C 154.542969 172.789062 155.171875 171.761719 155.855469 170.765625 C 156.539062 169.769531 157.269531 168.804688 158.046875 167.878906 C 158.828125 166.953125 159.652344 166.0625 160.519531 165.214844 C 161.386719 164.367188 162.296875 163.5625 163.246094 162.804688 C 164.195312 162.042969 165.179688 161.328125 166.203125 160.664062 C 167.222656 159.996094 168.273438 159.378906 169.359375 158.816406 C 170.441406 158.25 171.550781 157.738281 172.683594 157.277344 C 173.820312 156.820312 174.972656 156.417969 176.148438 156.066406 C 177.324219 155.71875 178.515625 155.429688 179.71875 155.195312 C 180.921875 154.960938 182.136719 154.785156 183.359375 154.667969 C 184.582031 154.550781 185.808594 154.492188 187.035156 154.492188 C 188.261719 154.492188 189.488281 154.550781 190.710938 154.667969 C 191.933594 154.785156 193.144531 154.960938 194.351562 155.195312 C 195.554688 155.429688 196.746094 155.71875 197.921875 156.066406 C 199.09375 156.417969 200.25 156.820312 201.386719 157.277344 C 202.519531 157.738281 203.628906 158.25 204.710938 158.816406 C 205.792969 159.378906 206.847656 159.996094 207.867188 160.664062 C 208.890625 161.328125 209.875 162.042969 210.824219 162.804688 C 211.773438 163.5625 212.683594 164.367188 213.550781 165.214844 C 214.417969 166.0625 215.242188 166.953125 216.023438 167.878906 C 216.800781 168.804688 217.53125 169.769531 218.214844 170.765625 C 218.894531 171.761719 219.527344 172.789062 220.105469 173.847656 C 220.683594 174.90625 221.207031 175.988281 221.679688 177.09375 C 222.148438 178.203125 222.5625 179.332031 222.917969 180.480469 C 223.273438 181.625 223.574219 182.789062 223.8125 183.964844 C 224.050781 185.140625 224.234375 186.324219 224.351562 187.519531 C 224.472656 188.710938 224.535156 189.910156 224.535156 191.109375 Z M 224.535156 191.109375 " fill-opacity="1" fill-rule="nonzero"/><path fill="#ffe169" d="M 216.964844 190.660156 C 216.964844 191.613281 216.914062 192.558594 216.816406 193.507812 C 216.71875 194.453125 216.574219 195.390625 216.378906 196.324219 C 216.1875 197.257812 215.945312 198.175781 215.65625 199.085938 C 215.367188 199.996094 215.03125 200.890625 214.652344 201.769531 C 214.273438 202.648438 213.847656 203.503906 213.378906 204.34375 C 212.910156 205.183594 212.398438 205.996094 211.847656 206.789062 C 211.292969 207.578125 210.703125 208.339844 210.074219 209.074219 C 209.441406 209.808594 208.773438 210.511719 208.070312 211.1875 C 207.367188 211.859375 206.632812 212.496094 205.863281 213.097656 C 205.097656 213.703125 204.296875 214.265625 203.472656 214.796875 C 202.644531 215.324219 201.792969 215.8125 200.917969 216.257812 C 200.039062 216.707031 199.140625 217.113281 198.222656 217.476562 C 197.304688 217.839844 196.371094 218.160156 195.417969 218.4375 C 194.46875 218.714844 193.503906 218.945312 192.53125 219.128906 C 191.554688 219.316406 190.570312 219.453125 189.582031 219.546875 C 188.59375 219.640625 187.601562 219.6875 186.605469 219.6875 C 185.613281 219.6875 184.621094 219.640625 183.632812 219.546875 C 182.640625 219.453125 181.660156 219.316406 180.683594 219.128906 C 179.710938 218.945312 178.746094 218.714844 177.796875 218.4375 C 176.84375 218.160156 175.910156 217.839844 174.992188 217.476562 C 174.070312 217.113281 173.175781 216.707031 172.296875 216.257812 C 171.421875 215.8125 170.570312 215.324219 169.742188 214.796875 C 168.914062 214.265625 168.117188 213.703125 167.347656 213.097656 C 166.582031 212.496094 165.84375 211.859375 165.140625 211.1875 C 164.4375 210.511719 163.773438 209.808594 163.140625 209.074219 C 162.511719 208.339844 161.917969 207.578125 161.367188 206.789062 C 160.816406 205.996094 160.304688 205.183594 159.835938 204.34375 C 159.367188 203.503906 158.941406 202.648438 158.5625 201.769531 C 158.179688 200.890625 157.847656 199.996094 157.558594 199.085938 C 157.269531 198.175781 157.027344 197.257812 156.835938 196.324219 C 156.640625 195.390625 156.496094 194.453125 156.398438 193.507812 C 156.300781 192.558594 156.25 191.613281 156.25 190.660156 C 156.25 189.710938 156.300781 188.761719 156.398438 187.816406 C 156.496094 186.871094 156.640625 185.929688 156.835938 185 C 157.027344 184.066406 157.269531 183.144531 157.558594 182.234375 C 157.847656 181.328125 158.179688 180.433594 158.5625 179.554688 C 158.941406 178.675781 159.367188 177.816406 159.835938 176.980469 C 160.304688 176.140625 160.816406 175.328125 161.367188 174.535156 C 161.917969 173.746094 162.511719 172.984375 163.140625 172.246094 C 163.773438 171.511719 164.4375 170.808594 165.140625 170.136719 C 165.84375 169.464844 166.582031 168.828125 167.347656 168.222656 C 168.117188 167.621094 168.914062 167.054688 169.742188 166.527344 C 170.570312 166 171.421875 165.511719 172.296875 165.0625 C 173.175781 164.613281 174.070312 164.210938 174.992188 163.84375 C 175.910156 163.480469 176.84375 163.160156 177.796875 162.886719 C 178.746094 162.609375 179.710938 162.378906 180.683594 162.195312 C 181.660156 162.007812 182.640625 161.867188 183.632812 161.777344 C 184.621094 161.683594 185.613281 161.636719 186.605469 161.636719 C 187.601562 161.636719 188.59375 161.683594 189.582031 161.777344 C 190.570312 161.867188 191.554688 162.007812 192.53125 162.195312 C 193.503906 162.378906 194.46875 162.609375 195.417969 162.886719 C 196.371094 163.160156 197.304688 163.480469 198.222656 163.84375 C 199.140625 164.210938 200.039062 164.613281 200.917969 165.0625 C 201.792969 165.511719 202.644531 166 203.472656 166.527344 C 204.296875 167.054688 205.097656 167.621094 205.863281 168.222656 C 206.632812 168.828125 207.367188 169.464844 208.070312 170.136719 C 208.773438 170.808594 209.441406 171.511719 210.074219 172.246094 C 210.703125 172.984375 211.292969 173.746094 211.847656 174.535156 C 212.398438 175.328125 212.910156 176.140625 213.378906 176.980469 C 213.847656 177.816406 214.273438 178.675781 214.652344 179.554688 C 215.03125 180.433594 215.367188 181.328125 215.65625 182.234375 C 215.945312 183.144531 216.1875 184.066406 216.378906 185 C 216.574219 185.929688 216.71875 186.871094 216.816406 187.816406 C 216.914062 188.761719 216.964844 189.710938 216.964844 190.660156 Z M 216.964844 190.660156 " fill-opacity="1" fill-rule="nonzero"/><path fill="#0a3051" d="M 210.714844 191.109375 C 210.714844 191.898438 210.675781 192.6875 210.597656 193.472656 C 210.519531 194.257812 210.402344 195.039062 210.25 195.8125 C 210.097656 196.585938 209.90625 197.351562 209.675781 198.109375 C 209.445312 198.863281 209.179688 199.605469 208.878906 200.335938 C 208.578125 201.066406 208.238281 201.777344 207.867188 202.476562 C 207.496094 203.171875 207.089844 203.847656 206.652344 204.503906 C 206.210938 205.160156 205.742188 205.796875 205.242188 206.40625 C 204.742188 207.015625 204.210938 207.601562 203.652344 208.160156 C 203.09375 208.71875 202.511719 209.246094 201.898438 209.746094 C 201.289062 210.25 200.65625 210.71875 200 211.15625 C 199.34375 211.597656 198.667969 212.003906 197.972656 212.375 C 197.273438 212.746094 196.5625 213.082031 195.832031 213.386719 C 195.101562 213.6875 194.359375 213.953125 193.605469 214.183594 C 192.847656 214.414062 192.085938 214.605469 191.308594 214.757812 C 190.535156 214.914062 189.753906 215.027344 188.96875 215.105469 C 188.183594 215.183594 187.398438 215.222656 186.605469 215.222656 C 185.816406 215.222656 185.03125 215.183594 184.246094 215.105469 C 183.457031 215.027344 182.679688 214.914062 181.902344 214.757812 C 181.128906 214.605469 180.363281 214.414062 179.609375 214.183594 C 178.855469 213.953125 178.113281 213.6875 177.382812 213.386719 C 176.652344 213.082031 175.941406 212.746094 175.242188 212.375 C 174.546875 212.003906 173.871094 211.597656 173.214844 211.15625 C 172.558594 210.71875 171.925781 210.25 171.3125 209.746094 C 170.703125 209.246094 170.121094 208.71875 169.5625 208.160156 C 169.003906 207.601562 168.472656 207.015625 167.972656 206.40625 C 167.472656 205.796875 167.003906 205.160156 166.5625 204.503906 C 166.125 203.847656 165.71875 203.171875 165.347656 202.476562 C 164.976562 201.777344 164.636719 201.066406 164.335938 200.335938 C 164.035156 199.605469 163.769531 198.863281 163.539062 198.109375 C 163.308594 197.351562 163.117188 196.585938 162.964844 195.8125 C 162.808594 195.039062 162.695312 194.257812 162.617188 193.472656 C 162.539062 192.6875 162.5 191.898438 162.5 191.109375 C 162.5 190.316406 162.539062 189.53125 162.617188 188.746094 C 162.695312 187.957031 162.808594 187.179688 162.964844 186.402344 C 163.117188 185.628906 163.308594 184.863281 163.539062 184.109375 C 163.769531 183.351562 164.035156 182.609375 164.335938 181.878906 C 164.636719 181.152344 164.976562 180.4375 165.347656 179.742188 C 165.71875 179.042969 166.125 178.367188 166.5625 177.710938 C 167.003906 177.054688 167.472656 176.421875 167.972656 175.8125 C 168.472656 175.199219 169.003906 174.617188 169.5625 174.058594 C 170.121094 173.5 170.703125 172.96875 171.3125 172.46875 C 171.925781 171.96875 172.558594 171.496094 173.214844 171.058594 C 173.871094 170.621094 174.546875 170.214844 175.242188 169.84375 C 175.941406 169.46875 176.652344 169.132812 177.382812 168.832031 C 178.113281 168.527344 178.855469 168.261719 179.609375 168.03125 C 180.363281 167.804688 181.128906 167.613281 181.902344 167.457031 C 182.679688 167.304688 183.457031 167.1875 184.246094 167.109375 C 185.03125 167.035156 185.816406 166.996094 186.605469 166.996094 C 187.398438 166.996094 188.183594 167.035156 188.96875 167.109375 C 189.753906 167.1875 190.535156 167.304688 191.308594 167.457031 C 192.085938 167.613281 192.847656 167.804688 193.605469 168.03125 C 194.359375 168.261719 195.101562 168.527344 195.832031 168.832031 C 196.5625 169.132812 197.273438 169.46875 197.972656 169.84375 C 198.667969 170.214844 199.34375 170.621094 200 171.058594 C 200.65625 171.496094 201.289062 171.96875 201.898438 172.46875 C 202.511719 172.96875 203.09375 173.5 203.652344 174.058594 C 204.210938 174.617188 204.742188 175.199219 205.242188 175.8125 C 205.742188 176.421875 206.210938 177.054688 206.652344 177.710938 C 207.089844 178.367188 207.496094 179.042969 207.867188 179.742188 C 208.238281 180.4375 208.578125 181.152344 208.878906 181.878906 C 209.179688 182.609375 209.445312 183.351562 209.675781 184.109375 C 209.90625 184.863281 210.097656 185.628906 210.25 186.402344 C 210.402344 187.179688 210.519531 187.957031 210.597656 188.746094 C 210.675781 189.53125 210.714844 190.316406 210.714844 191.109375 Z M 210.714844 191.109375 " fill-opacity="1" fill-rule="nonzero"/><path fill="#ffe169" d="M 295.53125 130.824219 C 295.53125 130.5 295.5 130.183594 295.4375 129.867188 C 295.375 129.550781 295.28125 129.242188 295.15625 128.945312 C 295.035156 128.648438 294.882812 128.363281 294.703125 128.09375 C 294.523438 127.828125 294.320312 127.578125 294.09375 127.351562 C 293.863281 127.121094 293.617188 126.917969 293.347656 126.738281 C 293.082031 126.5625 292.796875 126.410156 292.5 126.285156 C 292.203125 126.164062 291.894531 126.070312 291.578125 126.007812 C 291.261719 125.945312 290.945312 125.914062 290.621094 125.914062 C 290.296875 125.914062 289.980469 125.945312 289.664062 126.007812 C 289.347656 126.070312 289.039062 126.164062 288.742188 126.285156 C 288.445312 126.410156 288.160156 126.5625 287.894531 126.738281 C 287.625 126.917969 287.375 127.121094 287.148438 127.351562 C 286.921875 127.578125 286.71875 127.828125 286.539062 128.09375 C 286.359375 128.363281 286.207031 128.648438 286.085938 128.945312 C 285.960938 129.242188 285.867188 129.550781 285.804688 129.867188 C 285.742188 130.183594 285.710938 130.5 285.710938 130.824219 C 285.710938 131.148438 285.742188 131.464844 285.804688 131.78125 C 285.867188 132.097656 285.960938 132.40625 286.085938 132.703125 C 286.207031 133.003906 286.359375 133.285156 286.539062 133.554688 C 286.71875 133.820312 286.921875 134.070312 287.148438 134.296875 C 287.375 134.527344 287.625 134.730469 287.894531 134.910156 C 288.160156 135.085938 288.445312 135.238281 288.742188 135.363281 C 289.039062 135.484375 289.347656 135.578125 289.664062 135.640625 C 289.980469 135.703125 290.296875 135.738281 290.621094 135.738281 C 290.945312 135.738281 291.261719 135.703125 291.578125 135.640625 C 291.894531 135.578125 292.203125 135.484375 292.5 135.363281 C 292.796875 135.238281 293.082031 135.085938 293.347656 134.910156 C 293.617188 134.730469 293.863281 134.527344 294.09375 134.296875 C 294.320312 134.070312 294.523438 133.820312 294.703125 133.554688 C 294.882812 133.285156 295.035156 133.003906 295.15625 132.703125 C 295.28125 132.40625 295.375 132.097656 295.4375 131.78125 C 295.5 131.464844 295.53125 131.148438 295.53125 130.824219 Z M 295.53125 130.824219 " fill-opacity="1" fill-rule="nonzero"/><path fill="#c6d7d9" d="M 182.144531 178.160156 C 182.144531 177.835938 182.113281 177.515625 182.046875 177.199219 C 181.984375 176.882812 181.894531 176.578125 181.769531 176.277344 C 181.644531 175.980469 181.496094 175.699219 181.316406 175.429688 C 181.136719 175.160156 180.933594 174.914062 180.703125 174.683594 C 180.476562 174.457031 180.230469 174.253906 179.960938 174.074219 C 179.691406 173.894531 179.410156 173.742188 179.113281 173.621094 C 178.8125 173.496094 178.507812 173.402344 178.191406 173.339844 C 177.875 173.277344 177.554688 173.246094 177.234375 173.246094 C 176.910156 173.246094 176.589844 173.277344 176.273438 173.339844 C 175.957031 173.402344 175.652344 173.496094 175.351562 173.621094 C 175.054688 173.742188 174.773438 173.894531 174.503906 174.074219 C 174.234375 174.253906 173.988281 174.457031 173.761719 174.683594 C 173.53125 174.914062 173.328125 175.160156 173.148438 175.429688 C 172.96875 175.699219 172.820312 175.980469 172.695312 176.277344 C 172.574219 176.578125 172.480469 176.882812 172.417969 177.199219 C 172.351562 177.515625 172.320312 177.835938 172.320312 178.160156 C 172.320312 178.480469 172.351562 178.800781 172.417969 179.117188 C 172.480469 179.433594 172.574219 179.738281 172.695312 180.039062 C 172.820312 180.335938 172.96875 180.617188 173.148438 180.886719 C 173.328125 181.15625 173.53125 181.402344 173.761719 181.632812 C 173.988281 181.859375 174.234375 182.0625 174.503906 182.242188 C 174.773438 182.421875 175.054688 182.574219 175.351562 182.695312 C 175.652344 182.820312 175.957031 182.914062 176.273438 182.976562 C 176.589844 183.039062 176.910156 183.070312 177.234375 183.070312 C 177.554688 183.070312 177.875 183.039062 178.191406 182.976562 C 178.507812 182.914062 178.8125 182.820312 179.113281 182.695312 C 179.410156 182.574219 179.691406 182.421875 179.960938 182.242188 C 180.230469 182.0625 180.476562 181.859375 180.703125 181.632812 C 180.933594 181.402344 181.136719 181.15625 181.316406 180.886719 C 181.496094 180.617188 181.644531 180.335938 181.769531 180.039062 C 181.894531 179.738281 181.984375 179.433594 182.046875 179.117188 C 182.113281 178.800781 182.144531 178.480469 182.144531 178.160156 Z M 182.144531 178.160156 " fill-opacity="1" fill-rule="nonzero"/><path fill="#ffe169" d="M 72.324219 243.800781 L 72.324219 228.617188 C 72.324219 228.324219 72.355469 228.035156 72.410156 227.746094 C 72.46875 227.460938 72.554688 227.179688 72.664062 226.910156 C 72.777344 226.636719 72.914062 226.378906 73.078125 226.136719 C 73.242188 225.894531 73.425781 225.667969 73.632812 225.460938 C 73.839844 225.253906 74.066406 225.066406 74.308594 224.90625 C 74.554688 224.742188 74.8125 224.605469 75.082031 224.492188 C 75.351562 224.378906 75.632812 224.296875 75.917969 224.238281 C 76.207031 224.179688 76.496094 224.152344 76.789062 224.152344 C 77.082031 224.152344 77.375 224.179688 77.660156 224.238281 C 77.949219 224.296875 78.226562 224.378906 78.5 224.492188 C 78.769531 224.605469 79.027344 224.742188 79.269531 224.90625 C 79.515625 225.066406 79.738281 225.253906 79.945312 225.460938 C 80.152344 225.667969 80.339844 225.894531 80.5 226.136719 C 80.664062 226.378906 80.800781 226.636719 80.914062 226.910156 C 81.027344 227.179688 81.109375 227.460938 81.167969 227.746094 C 81.226562 228.035156 81.253906 228.324219 81.253906 228.617188 L 81.253906 243.800781 C 81.253906 244.09375 81.226562 244.382812 81.167969 244.671875 C 81.109375 244.960938 81.027344 245.238281 80.914062 245.507812 C 80.800781 245.78125 80.664062 246.039062 80.5 246.28125 C 80.339844 246.523438 80.152344 246.75 79.945312 246.957031 C 79.738281 247.164062 79.515625 247.351562 79.269531 247.511719 C 79.027344 247.675781 78.769531 247.8125 78.5 247.925781 C 78.226562 248.039062 77.949219 248.121094 77.660156 248.179688 C 77.375 248.238281 77.082031 248.265625 76.789062 248.265625 C 76.496094 248.265625 76.207031 248.238281 75.917969 248.179688 C 75.632812 248.121094 75.351562 248.039062 75.082031 247.925781 C 74.8125 247.8125 74.554688 247.675781 74.308594 247.511719 C 74.066406 247.351562 73.839844 247.164062 73.632812 246.957031 C 73.425781 246.75 73.242188 246.523438 73.078125 246.28125 C 72.914062 246.039062 72.777344 245.78125 72.664062 245.507812 C 72.554688 245.238281 72.46875 244.960938 72.410156 244.671875 C 72.355469 244.382812 72.324219 244.09375 72.324219 243.800781 Z M 72.324219 243.800781 " fill-opacity="1" fill-rule="nonzero"/></svg>