<svg xmlns="http://www.w3.org/2000/svg" xmlns:xlink="http://www.w3.org/1999/xlink" width="100" zoomAndPan="magnify" viewBox="0 0 75 30.000001" height="40" preserveAspectRatio="xMidYMid meet" version="1.0"><defs><g/><clipPath id="6d506aaa0a"><path d="M 9.746094 9.761719 L 25.476562 9.761719 L 25.476562 13.4375 L 9.746094 13.4375 Z M 9.746094 9.761719 " clip-rule="nonzero"/></clipPath><clipPath id="fc1d55d688"><path d="M 17.609375 9.761719 C 13.265625 9.761719 9.746094 10.582031 9.746094 11.597656 C 9.746094 12.613281 13.265625 13.4375 17.609375 13.4375 C 21.953125 13.4375 25.476562 12.613281 25.476562 11.597656 C 25.476562 10.582031 21.953125 9.761719 17.609375 9.761719 Z M 17.609375 9.761719 " clip-rule="nonzero"/></clipPath><clipPath id="ada59e08b7"><path d="M 5 8.800781 L 11 8.800781 L 11 11 L 5 11 Z M 5 8.800781 " clip-rule="nonzero"/></clipPath><clipPath id="8e4e5b9ff5"><path d="M 12 8.800781 L 23 8.800781 L 23 12 L 12 12 Z M 12 8.800781 " clip-rule="nonzero"/></clipPath><clipPath id="9baf3d2318"><path d="M 12 8.800781 L 23 8.800781 L 23 11 L 12 11 Z M 12 8.800781 " clip-rule="nonzero"/></clipPath><clipPath id="eae2d1cdc1"><path d="M 2 8.800781 L 32 8.800781 L 32 27 L 2 27 Z M 2 8.800781 " clip-rule="nonzero"/></clipPath><clipPath id="a34e889bad"><path d="M 2 8 L 11.007812 8 L 11.007812 27 L 2 27 Z M 2 8 " clip-rule="nonzero"/></clipPath><clipPath id="b71eb2e75c"><path d="M 2 13 L 11.007812 13 L 11.007812 27 L 2 27 Z M 2 13 " clip-rule="nonzero"/></clipPath><clipPath id="0504614055"><path d="M 12.394531 11.597656 L 22.089844 11.597656 L 22.089844 19.03125 L 12.394531 19.03125 Z M 12.394531 11.597656 " clip-rule="nonzero"/></clipPath><clipPath id="92a830f028"><path d="M 17.242188 11.597656 C 14.566406 11.597656 12.394531 13.261719 12.394531 15.3125 C 12.394531 17.367188 14.566406 19.03125 17.242188 19.03125 C 19.917969 19.03125 22.085938 17.367188 22.085938 15.3125 C 22.085938 13.261719 19.917969 11.597656 17.242188 11.597656 Z M 17.242188 11.597656 " clip-rule="nonzero"/></clipPath><clipPath id="8e492e8f32"><path d="M 12.394531 12.59375 L 22.097656 12.59375 L 22.097656 21.863281 L 12.394531 21.863281 Z M 12.394531 12.59375 " clip-rule="nonzero"/></clipPath><clipPath id="2bfd5c89c6"><path d="M 17.242188 12.59375 C 14.566406 12.59375 12.394531 14.667969 12.394531 17.226562 C 12.394531 19.785156 14.566406 21.863281 17.242188 21.863281 C 19.917969 21.863281 22.085938 19.785156 22.085938 17.226562 C 22.085938 14.667969 19.917969 12.59375 17.242188 12.59375 Z M 17.242188 12.59375 " clip-rule="nonzero"/></clipPath><clipPath id="95ae55bd63"><path d="M 11.121094 13.4375 L 14.5625 13.4375 L 14.5625 16.878906 L 11.121094 16.878906 Z M 11.121094 13.4375 " clip-rule="nonzero"/></clipPath><clipPath id="39d2e08012"><path d="M 12.574219 13.4375 L 13.113281 13.4375 C 13.496094 13.4375 13.867188 13.589844 14.140625 13.859375 C 14.410156 14.132812 14.5625 14.503906 14.5625 14.886719 L 14.5625 15.425781 C 14.5625 15.8125 14.410156 16.179688 14.140625 16.453125 C 13.867188 16.726562 13.496094 16.878906 13.113281 16.878906 L 12.574219 16.878906 C 12.1875 16.878906 11.820312 16.726562 11.546875 16.453125 C 11.273438 16.179688 11.121094 15.8125 11.121094 15.425781 L 11.121094 14.886719 C 11.121094 14.503906 11.273438 14.132812 11.546875 13.859375 C 11.820312 13.589844 12.1875 13.4375 12.574219 13.4375 Z M 12.574219 13.4375 " clip-rule="nonzero"/></clipPath><clipPath id="504cd3fd8d"><path d="M 11.980469 9.75 L 15.425781 9.75 L 15.425781 13.191406 L 11.980469 13.191406 Z M 11.980469 9.75 " clip-rule="nonzero"/></clipPath><clipPath id="80f88df806"><path d="M 13.433594 9.75 L 13.972656 9.75 C 14.359375 9.75 14.726562 9.902344 15 10.175781 C 15.273438 10.445312 15.425781 10.816406 15.425781 11.199219 L 15.425781 11.742188 C 15.425781 12.125 15.273438 12.496094 15 12.769531 C 14.726562 13.039062 14.359375 13.191406 13.972656 13.191406 L 13.433594 13.191406 C 13.046875 13.191406 12.679688 13.039062 12.40625 12.769531 C 12.132812 12.496094 11.980469 12.125 11.980469 11.742188 L 11.980469 11.199219 C 11.980469 10.816406 12.132812 10.445312 12.40625 10.175781 C 12.679688 9.902344 13.046875 9.75 13.433594 9.75 Z M 13.433594 9.75 " clip-rule="nonzero"/></clipPath><clipPath id="6b7243326c"><path d="M 10.382812 1.347656 L 24.097656 1.347656 L 24.097656 21.71875 L 10.382812 21.71875 Z M 10.382812 1.347656 " clip-rule="nonzero"/></clipPath></defs><g clip-path="url(#6d506aaa0a)"><g clip-path="url(#fc1d55d688)"><path fill="#0a3051" d="M 9.746094 9.761719 L 25.476562 9.761719 L 25.476562 13.4375 L 9.746094 13.4375 Z M 9.746094 9.761719 " fill-opacity="1" fill-rule="nonzero"/></g></g><g clip-path="url(#ada59e08b7)"><path fill="#6f7c7d" d="M 7.054688 7.71875 L 9.527344 7.71875 C 9.691406 7.71875 9.851562 7.75 10.003906 7.8125 C 10.152344 7.875 10.289062 7.964844 10.402344 8.082031 C 10.519531 8.199219 10.609375 8.335938 10.671875 8.488281 C 10.734375 8.640625 10.765625 8.796875 10.765625 8.964844 C 10.765625 9.128906 10.734375 9.289062 10.671875 9.441406 C 10.609375 9.59375 10.519531 9.726562 10.402344 9.84375 C 10.289062 9.960938 10.152344 10.050781 10.003906 10.113281 C 9.851562 10.179688 9.691406 10.210938 9.527344 10.210938 L 7.054688 10.210938 C 6.890625 10.210938 6.730469 10.179688 6.578125 10.113281 C 6.429688 10.050781 6.292969 9.960938 6.179688 9.84375 C 6.0625 9.726562 5.972656 9.59375 5.910156 9.441406 C 5.847656 9.289062 5.816406 9.128906 5.816406 8.964844 C 5.816406 8.796875 5.847656 8.640625 5.910156 8.488281 C 5.972656 8.335938 6.0625 8.199219 6.179688 8.082031 C 6.292969 7.964844 6.429688 7.875 6.578125 7.8125 C 6.730469 7.75 6.890625 7.71875 7.054688 7.71875 Z M 7.054688 7.71875 " fill-opacity="1" fill-rule="nonzero"/></g><g clip-path="url(#8e4e5b9ff5)"><path fill="#0a3051" d="M 14.6875 7.199219 L 20.359375 7.199219 C 20.617188 7.199219 20.867188 7.25 21.109375 7.347656 C 21.347656 7.449219 21.5625 7.589844 21.746094 7.777344 C 21.929688 7.960938 22.070312 8.175781 22.167969 8.417969 C 22.269531 8.660156 22.320312 8.910156 22.320312 9.171875 C 22.320312 9.433594 22.269531 9.683594 22.167969 9.925781 C 22.070312 10.167969 21.929688 10.382812 21.746094 10.566406 C 21.5625 10.75 21.347656 10.894531 21.109375 10.992188 C 20.867188 11.09375 20.617188 11.144531 20.359375 11.144531 L 14.6875 11.144531 C 14.425781 11.144531 14.175781 11.09375 13.9375 10.992188 C 13.695312 10.894531 13.484375 10.75 13.300781 10.566406 C 13.117188 10.382812 12.976562 10.167969 12.875 9.925781 C 12.777344 9.683594 12.726562 9.433594 12.726562 9.171875 C 12.726562 8.910156 12.777344 8.660156 12.875 8.417969 C 12.976562 8.175781 13.117188 7.960938 13.300781 7.777344 C 13.484375 7.589844 13.695312 7.449219 13.9375 7.347656 C 14.175781 7.25 14.425781 7.199219 14.6875 7.199219 Z M 14.6875 7.199219 " fill-opacity="1" fill-rule="nonzero"/></g><g clip-path="url(#9baf3d2318)"><path fill="#0a3051" d="M 14.738281 6.058594 L 20.308594 6.058594 C 20.574219 6.058594 20.832031 6.109375 21.078125 6.210938 C 21.324219 6.3125 21.539062 6.460938 21.730469 6.648438 C 21.917969 6.839844 22.0625 7.058594 22.164062 7.304688 C 22.265625 7.554688 22.320312 7.8125 22.320312 8.082031 C 22.320312 8.351562 22.265625 8.609375 22.164062 8.855469 C 22.0625 9.105469 21.917969 9.324219 21.730469 9.511719 C 21.539062 9.703125 21.324219 9.847656 21.078125 9.953125 C 20.832031 10.054688 20.574219 10.105469 20.308594 10.105469 L 14.738281 10.105469 C 14.472656 10.105469 14.214844 10.054688 13.96875 9.953125 C 13.722656 9.847656 13.503906 9.703125 13.316406 9.511719 C 13.125 9.324219 12.980469 9.105469 12.878906 8.855469 C 12.777344 8.609375 12.726562 8.351562 12.726562 8.082031 C 12.726562 7.8125 12.777344 7.554688 12.878906 7.304688 C 12.980469 7.058594 13.125 6.839844 13.316406 6.648438 C 13.503906 6.460938 13.722656 6.3125 13.96875 6.210938 C 14.214844 6.109375 14.472656 6.058594 14.738281 6.058594 Z M 14.738281 6.058594 " fill-opacity="1" fill-rule="nonzero"/></g><g clip-path="url(#eae2d1cdc1)"><path fill="#0a3051" d="M 5.710938 8.757812 L 28.300781 8.757812 C 28.726562 8.757812 29.132812 8.839844 29.523438 9 C 29.917969 9.164062 30.261719 9.398438 30.5625 9.699219 C 30.863281 10 31.09375 10.347656 31.253906 10.742188 C 31.417969 11.136719 31.5 11.546875 31.5 11.976562 L 31.5 23.085938 C 31.5 23.511719 31.417969 23.921875 31.253906 24.316406 C 31.09375 24.710938 30.863281 25.058594 30.5625 25.359375 C 30.261719 25.664062 29.917969 25.894531 29.523438 26.058594 C 29.132812 26.222656 28.726562 26.304688 28.300781 26.304688 L 5.710938 26.304688 C 5.289062 26.304688 4.878906 26.222656 4.488281 26.058594 C 4.097656 25.894531 3.75 25.664062 3.453125 25.359375 C 3.152344 25.058594 2.921875 24.710938 2.757812 24.316406 C 2.597656 23.921875 2.515625 23.511719 2.515625 23.085938 L 2.515625 11.976562 C 2.515625 11.546875 2.597656 11.136719 2.757812 10.742188 C 2.921875 10.347656 3.152344 10 3.453125 9.699219 C 3.75 9.398438 4.097656 9.164062 4.488281 9 C 4.878906 8.839844 5.289062 8.757812 5.710938 8.757812 Z M 5.710938 8.757812 " fill-opacity="1" fill-rule="nonzero"/></g><path fill="#114675" d="M 2.515625 16.394531 C 2.515625 14.699219 3.929688 13.324219 5.679688 13.324219 L 28.335938 13.324219 C 30.082031 13.324219 31.5 14.699219 31.5 16.394531 L 31.5 23.230469 C 31.5 24.929688 30.082031 26.304688 28.335938 26.304688 L 5.679688 26.304688 C 3.929688 26.304688 2.515625 24.929688 2.515625 23.230469 Z M 2.515625 16.394531 " fill-opacity="1" fill-rule="nonzero"/><path fill="#c6d7d9" d="M 22.574219 17.53125 C 22.574219 17.878906 22.539062 18.226562 22.46875 18.574219 C 22.398438 18.917969 22.292969 19.25 22.152344 19.574219 C 22.011719 19.898438 21.84375 20.207031 21.640625 20.5 C 21.4375 20.792969 21.207031 21.0625 20.949219 21.3125 C 20.695312 21.558594 20.414062 21.78125 20.109375 21.976562 C 19.808594 22.171875 19.488281 22.335938 19.152344 22.46875 C 18.816406 22.605469 18.46875 22.707031 18.113281 22.773438 C 17.753906 22.84375 17.394531 22.875 17.03125 22.875 C 16.667969 22.875 16.308594 22.84375 15.949219 22.773438 C 15.59375 22.707031 15.246094 22.605469 14.910156 22.46875 C 14.574219 22.335938 14.253906 22.171875 13.953125 21.976562 C 13.648438 21.78125 13.371094 21.558594 13.113281 21.3125 C 12.855469 21.0625 12.625 20.792969 12.421875 20.5 C 12.21875 20.207031 12.050781 19.898438 11.910156 19.574219 C 11.769531 19.25 11.664062 18.917969 11.59375 18.574219 C 11.523438 18.226562 11.488281 17.878906 11.488281 17.53125 C 11.488281 17.179688 11.523438 16.832031 11.59375 16.488281 C 11.664062 16.140625 11.769531 15.808594 11.910156 15.484375 C 12.050781 15.160156 12.21875 14.851562 12.421875 14.558594 C 12.625 14.265625 12.855469 13.996094 13.113281 13.75 C 13.371094 13.5 13.648438 13.277344 13.953125 13.082031 C 14.253906 12.886719 14.574219 12.722656 14.910156 12.589844 C 15.246094 12.457031 15.59375 12.355469 15.949219 12.285156 C 16.308594 12.21875 16.667969 12.183594 17.03125 12.183594 C 17.394531 12.183594 17.753906 12.21875 18.113281 12.285156 C 18.46875 12.355469 18.816406 12.457031 19.152344 12.589844 C 19.488281 12.722656 19.808594 12.886719 20.109375 13.082031 C 20.414062 13.277344 20.695312 13.5 20.949219 13.75 C 21.207031 13.996094 21.4375 14.265625 21.640625 14.558594 C 21.84375 14.851562 22.011719 15.160156 22.152344 15.484375 C 22.292969 15.808594 22.398438 16.140625 22.46875 16.488281 C 22.539062 16.832031 22.574219 17.179688 22.574219 17.53125 Z M 22.574219 17.53125 " fill-opacity="1" fill-rule="nonzero"/><path fill="#0a3051" d="M 21.441406 17.582031 C 21.441406 17.859375 21.410156 18.136719 21.355469 18.410156 C 21.300781 18.6875 21.21875 18.953125 21.109375 19.210938 C 21 19.46875 20.867188 19.714844 20.710938 19.945312 C 20.550781 20.179688 20.371094 20.394531 20.171875 20.589844 C 19.96875 20.789062 19.75 20.964844 19.515625 21.121094 C 19.277344 21.277344 19.027344 21.40625 18.765625 21.515625 C 18.503906 21.621094 18.230469 21.703125 17.953125 21.757812 C 17.671875 21.8125 17.390625 21.839844 17.109375 21.839844 C 16.824219 21.839844 16.542969 21.8125 16.261719 21.757812 C 15.984375 21.703125 15.710938 21.621094 15.449219 21.515625 C 15.1875 21.40625 14.9375 21.277344 14.699219 21.121094 C 14.464844 20.964844 14.246094 20.789062 14.042969 20.589844 C 13.84375 20.394531 13.664062 20.179688 13.503906 19.945312 C 13.347656 19.714844 13.214844 19.46875 13.105469 19.210938 C 12.996094 18.953125 12.914062 18.6875 12.859375 18.410156 C 12.804688 18.136719 12.777344 17.859375 12.777344 17.582031 C 12.777344 17.300781 12.804688 17.023438 12.859375 16.75 C 12.914062 16.476562 12.996094 16.210938 13.105469 15.953125 C 13.214844 15.695312 13.347656 15.449219 13.503906 15.214844 C 13.664062 14.984375 13.84375 14.769531 14.042969 14.570312 C 14.246094 14.375 14.464844 14.199219 14.699219 14.042969 C 14.9375 13.886719 15.1875 13.753906 15.449219 13.648438 C 15.710938 13.542969 15.984375 13.460938 16.261719 13.40625 C 16.542969 13.351562 16.824219 13.324219 17.109375 13.324219 C 17.390625 13.324219 17.671875 13.351562 17.953125 13.40625 C 18.230469 13.460938 18.503906 13.542969 18.765625 13.648438 C 19.027344 13.753906 19.277344 13.886719 19.515625 14.042969 C 19.75 14.199219 19.96875 14.375 20.171875 14.570312 C 20.371094 14.769531 20.550781 14.984375 20.710938 15.214844 C 20.867188 15.449219 21 15.695312 21.109375 15.953125 C 21.21875 16.210938 21.300781 16.476562 21.355469 16.75 C 21.410156 17.023438 21.441406 17.300781 21.441406 17.582031 Z M 21.441406 17.582031 " fill-opacity="1" fill-rule="nonzero"/><path fill="#ffe169" d="M 20.566406 17.53125 C 20.566406 17.976562 20.476562 18.40625 20.296875 18.820312 C 20.121094 19.234375 19.867188 19.597656 19.539062 19.914062 C 19.210938 20.230469 18.828125 20.476562 18.398438 20.648438 C 17.96875 20.820312 17.523438 20.902344 17.058594 20.902344 C 16.59375 20.902344 16.144531 20.820312 15.714844 20.648438 C 15.285156 20.476562 14.90625 20.230469 14.578125 19.914062 C 14.25 19.597656 13.996094 19.234375 13.816406 18.820312 C 13.640625 18.40625 13.550781 17.976562 13.550781 17.53125 C 13.550781 17.082031 13.640625 16.652344 13.816406 16.238281 C 13.996094 15.824219 14.25 15.460938 14.578125 15.144531 C 14.90625 14.828125 15.285156 14.582031 15.714844 14.414062 C 16.144531 14.242188 16.59375 14.15625 17.058594 14.15625 C 17.523438 14.15625 17.96875 14.242188 18.398438 14.414062 C 18.828125 14.582031 19.210938 14.828125 19.539062 15.144531 C 19.867188 15.460938 20.121094 15.824219 20.296875 16.238281 C 20.476562 16.652344 20.566406 17.082031 20.566406 17.53125 Z M 20.566406 17.53125 " fill-opacity="1" fill-rule="nonzero"/><path fill="#0a3051" d="M 19.84375 17.582031 C 19.84375 17.953125 19.773438 18.3125 19.632812 18.65625 C 19.488281 18.996094 19.289062 19.300781 19.027344 19.5625 C 18.765625 19.828125 18.464844 20.027344 18.125 20.171875 C 17.78125 20.3125 17.425781 20.386719 17.058594 20.386719 C 16.6875 20.386719 16.332031 20.3125 15.992188 20.171875 C 15.652344 20.027344 15.351562 19.828125 15.089844 19.5625 C 14.828125 19.300781 14.625 18.996094 14.484375 18.65625 C 14.34375 18.3125 14.273438 17.953125 14.273438 17.582031 C 14.273438 17.210938 14.34375 16.851562 14.484375 16.507812 C 14.625 16.164062 14.828125 15.863281 15.089844 15.597656 C 15.351562 15.335938 15.652344 15.132812 15.992188 14.992188 C 16.332031 14.847656 16.6875 14.777344 17.058594 14.777344 C 17.425781 14.777344 17.78125 14.847656 18.125 14.992188 C 18.464844 15.132812 18.765625 15.335938 19.027344 15.597656 C 19.289062 15.863281 19.488281 16.164062 19.632812 16.507812 C 19.773438 16.851562 19.84375 17.210938 19.84375 17.582031 Z M 19.84375 17.582031 " fill-opacity="1" fill-rule="nonzero"/><path fill="#ffe169" d="M 29.640625 10.574219 C 29.640625 10.414062 29.585938 10.28125 29.476562 10.167969 C 29.363281 10.058594 29.230469 10.003906 29.074219 10.003906 C 28.917969 10.003906 28.785156 10.058594 28.671875 10.167969 C 28.5625 10.28125 28.507812 10.414062 28.507812 10.574219 C 28.507812 10.730469 28.5625 10.867188 28.671875 10.976562 C 28.785156 11.089844 28.917969 11.144531 29.074219 11.144531 C 29.230469 11.144531 29.363281 11.089844 29.476562 10.976562 C 29.585938 10.867188 29.640625 10.730469 29.640625 10.574219 Z M 29.640625 10.574219 " fill-opacity="1" fill-rule="nonzero"/><path fill="#c6d7d9" d="M 16.542969 16.074219 C 16.542969 15.917969 16.488281 15.785156 16.375 15.671875 C 16.265625 15.5625 16.132812 15.503906 15.976562 15.503906 C 15.820312 15.503906 15.683594 15.5625 15.574219 15.671875 C 15.464844 15.785156 15.40625 15.917969 15.40625 16.074219 C 15.40625 16.234375 15.464844 16.367188 15.574219 16.480469 C 15.683594 16.589844 15.820312 16.648438 15.976562 16.648438 C 16.132812 16.648438 16.265625 16.589844 16.375 16.480469 C 16.488281 16.367188 16.542969 16.234375 16.542969 16.074219 Z M 16.542969 16.074219 " fill-opacity="1" fill-rule="nonzero"/><path fill="#ffe169" d="M 3.855469 23.707031 L 3.855469 21.941406 C 3.855469 21.800781 3.90625 21.675781 4.007812 21.574219 C 4.105469 21.472656 4.230469 21.421875 4.371094 21.421875 C 4.515625 21.421875 4.636719 21.472656 4.734375 21.574219 C 4.835938 21.675781 4.886719 21.800781 4.886719 21.941406 L 4.886719 23.707031 C 4.886719 23.851562 4.835938 23.972656 4.734375 24.074219 C 4.636719 24.175781 4.515625 24.226562 4.371094 24.226562 C 4.230469 24.226562 4.105469 24.175781 4.007812 24.074219 C 3.90625 23.972656 3.855469 23.851562 3.855469 23.707031 Z M 3.855469 23.707031 " fill-opacity="1" fill-rule="nonzero"/><path fill="#6f7c7d" d="M 7.054688 7.707031 L 9.527344 7.707031 C 9.691406 7.707031 9.851562 7.738281 10.003906 7.800781 C 10.152344 7.863281 10.289062 7.953125 10.402344 8.070312 C 10.519531 8.1875 10.609375 8.320312 10.671875 8.472656 C 10.734375 8.628906 10.765625 8.785156 10.765625 8.953125 C 10.765625 9.117188 10.734375 9.273438 10.671875 9.429688 C 10.609375 9.582031 10.519531 9.714844 10.402344 9.832031 C 10.289062 9.949219 10.152344 10.039062 10.003906 10.101562 C 9.851562 10.164062 9.691406 10.195312 9.527344 10.195312 L 7.054688 10.195312 C 6.890625 10.195312 6.730469 10.164062 6.578125 10.101562 C 6.429688 10.039062 6.292969 9.949219 6.179688 9.832031 C 6.0625 9.714844 5.972656 9.582031 5.910156 9.429688 C 5.847656 9.273438 5.816406 9.117188 5.816406 8.953125 C 5.816406 8.785156 5.847656 8.628906 5.910156 8.472656 C 5.972656 8.320312 6.0625 8.1875 6.179688 8.070312 C 6.292969 7.953125 6.429688 7.863281 6.578125 7.800781 C 6.730469 7.738281 6.890625 7.707031 7.054688 7.707031 Z M 7.054688 7.707031 " fill-opacity="1" fill-rule="nonzero"/><g clip-path="url(#a34e889bad)"><path fill="#0a3051" d="M 5.710938 8.742188 L 28.300781 8.742188 C 28.726562 8.742188 29.132812 8.824219 29.523438 8.988281 C 29.917969 9.152344 30.261719 9.382812 30.5625 9.6875 C 30.863281 9.988281 31.09375 10.335938 31.253906 10.730469 C 31.417969 11.125 31.5 11.535156 31.5 11.960938 L 31.5 23.070312 C 31.5 23.5 31.417969 23.910156 31.253906 24.304688 C 31.09375 24.699219 30.863281 25.046875 30.5625 25.347656 C 30.261719 25.648438 29.917969 25.882812 29.523438 26.046875 C 29.132812 26.207031 28.726562 26.289062 28.300781 26.289062 L 5.710938 26.289062 C 5.289062 26.289062 4.878906 26.207031 4.488281 26.046875 C 4.097656 25.882812 3.75 25.648438 3.453125 25.347656 C 3.152344 25.046875 2.921875 24.699219 2.757812 24.304688 C 2.597656 23.910156 2.515625 23.5 2.515625 23.070312 L 2.515625 11.960938 C 2.515625 11.535156 2.597656 11.125 2.757812 10.730469 C 2.921875 10.335938 3.152344 9.988281 3.453125 9.6875 C 3.75 9.382812 4.097656 9.152344 4.488281 8.988281 C 4.878906 8.824219 5.289062 8.742188 5.710938 8.742188 Z M 5.710938 8.742188 " fill-opacity="1" fill-rule="nonzero"/></g><g clip-path="url(#b71eb2e75c)"><path fill="#114675" d="M 2.515625 16.382812 C 2.515625 14.6875 3.929688 13.3125 5.679688 13.3125 L 28.335938 13.3125 C 30.082031 13.3125 31.5 14.6875 31.5 16.382812 L 31.5 23.21875 C 31.5 24.914062 30.082031 26.289062 28.335938 26.289062 L 5.679688 26.289062 C 3.929688 26.289062 2.515625 24.914062 2.515625 23.21875 Z M 2.515625 16.382812 " fill-opacity="1" fill-rule="nonzero"/></g><path fill="#ffe169" d="M 3.855469 23.695312 L 3.855469 21.929688 C 3.855469 21.785156 3.90625 21.664062 4.007812 21.5625 C 4.105469 21.460938 4.230469 21.410156 4.371094 21.410156 C 4.515625 21.410156 4.636719 21.460938 4.734375 21.5625 C 4.835938 21.664062 4.886719 21.785156 4.886719 21.929688 L 4.886719 23.695312 C 4.886719 23.839844 4.835938 23.960938 4.734375 24.0625 C 4.636719 24.164062 4.515625 24.214844 4.371094 24.214844 C 4.230469 24.214844 4.105469 24.164062 4.007812 24.0625 C 3.90625 23.960938 3.855469 23.839844 3.855469 23.695312 Z M 3.855469 23.695312 " fill-opacity="1" fill-rule="nonzero"/><g clip-path="url(#0504614055)"><g clip-path="url(#92a830f028)"><path fill="#114675" d="M 12.394531 11.597656 L 22.089844 11.597656 L 22.089844 19.03125 L 12.394531 19.03125 Z M 12.394531 11.597656 " fill-opacity="1" fill-rule="nonzero"/></g></g><g clip-path="url(#8e492e8f32)"><g clip-path="url(#2bfd5c89c6)"><path fill="#c6d7d9" d="M 12.394531 12.59375 L 22.097656 12.59375 L 22.097656 21.863281 L 12.394531 21.863281 Z M 12.394531 12.59375 " fill-opacity="1" fill-rule="nonzero"/></g></g><g clip-path="url(#95ae55bd63)"><g clip-path="url(#39d2e08012)"><path fill="#114675" d="M 11.121094 13.4375 L 14.5625 13.4375 L 14.5625 16.878906 L 11.121094 16.878906 Z M 11.121094 13.4375 " fill-opacity="1" fill-rule="nonzero"/></g></g><g clip-path="url(#504cd3fd8d)"><g clip-path="url(#80f88df806)"><path fill="#0a3051" d="M 11.980469 9.75 L 15.425781 9.75 L 15.425781 13.191406 L 11.980469 13.191406 Z M 11.980469 9.75 " fill-opacity="1" fill-rule="nonzero"/></g></g><g clip-path="url(#6b7243326c)"><path fill="#ee8301" d="M 20.027344 21.847656 C 20.339844 21.667969 23.855469 19.566406 24.011719 15.945312 C 24.082031 14.261719 23.382812 12.660156 22.421875 11.316406 C 21.703125 10.316406 20.773438 9.523438 19.917969 8.648438 C 19.078125 7.789062 18.296875 6.84375 17.660156 5.824219 C 17.269531 5.203125 16.898438 4.480469 16.890625 3.730469 C 16.878906 2.675781 17.339844 1.832031 17.667969 1.347656 C 16.960938 1.777344 14.5 3.386719 13.417969 6.625 C 12.054688 10.722656 13.984375 14.179688 14.300781 14.722656 C 13.964844 14.496094 13.375 14.03125 12.925781 13.242188 C 12.5625 12.605469 12.433594 12.011719 12.382812 11.636719 C 12.085938 11.953125 10.398438 13.828125 10.585938 16.613281 C 10.808594 19.949219 13.539062 21.683594 13.808594 21.847656 C 13.746094 21.492188 13.671875 20.738281 13.988281 19.878906 C 14.222656 19.238281 14.582031 18.800781 14.816406 18.558594 C 14.789062 18.808594 14.773438 19.273438 14.972656 19.800781 C 15.257812 20.550781 15.796875 20.957031 16.011719 21.097656 C 15.761719 20.390625 15.714844 19.78125 15.75 19.28125 C 15.871094 17.582031 16.96875 16.894531 17.226562 15.082031 C 17.332031 14.351562 17.265625 13.695312 17.148438 13.164062 C 17.597656 13.425781 19.480469 14.582031 20.261719 17.027344 C 21.015625 19.386719 20.238281 21.355469 20.027344 21.847656 Z M 20.027344 21.847656 " fill-opacity="1" fill-rule="nonzero"/></g><g fill="#ee8301" fill-opacity="1"><g transform="translate(33.474842, 18.769653)"><g><path d="M 2.125 0.078125 C 1.75 0.078125 1.382812 0.03125 1.03125 -0.0625 C 0.6875 -0.164062 0.40625 -0.300781 0.1875 -0.46875 L 0.5625 -1.296875 C 0.769531 -1.148438 1.007812 -1.03125 1.28125 -0.9375 C 1.5625 -0.84375 1.84375 -0.796875 2.125 -0.796875 C 2.4375 -0.796875 2.664062 -0.84375 2.8125 -0.9375 C 2.96875 -1.03125 3.046875 -1.15625 3.046875 -1.3125 C 3.046875 -1.425781 3 -1.519531 2.90625 -1.59375 C 2.820312 -1.664062 2.707031 -1.722656 2.5625 -1.765625 C 2.425781 -1.816406 2.242188 -1.867188 2.015625 -1.921875 C 1.648438 -2.003906 1.351562 -2.085938 1.125 -2.171875 C 0.894531 -2.265625 0.695312 -2.40625 0.53125 -2.59375 C 0.363281 -2.78125 0.28125 -3.03125 0.28125 -3.34375 C 0.28125 -3.625 0.351562 -3.875 0.5 -4.09375 C 0.65625 -4.320312 0.882812 -4.5 1.1875 -4.625 C 1.488281 -4.757812 1.851562 -4.828125 2.28125 -4.828125 C 2.582031 -4.828125 2.878906 -4.789062 3.171875 -4.71875 C 3.460938 -4.644531 3.71875 -4.539062 3.9375 -4.40625 L 3.59375 -3.578125 C 3.15625 -3.828125 2.71875 -3.953125 2.28125 -3.953125 C 1.96875 -3.953125 1.738281 -3.898438 1.59375 -3.796875 C 1.445312 -3.691406 1.375 -3.5625 1.375 -3.40625 C 1.375 -3.238281 1.457031 -3.113281 1.625 -3.03125 C 1.800781 -2.957031 2.0625 -2.882812 2.40625 -2.8125 C 2.769531 -2.71875 3.066406 -2.628906 3.296875 -2.546875 C 3.523438 -2.460938 3.722656 -2.328125 3.890625 -2.140625 C 4.054688 -1.953125 4.140625 -1.703125 4.140625 -1.390625 C 4.140625 -1.117188 4.0625 -0.867188 3.90625 -0.640625 C 3.757812 -0.421875 3.535156 -0.242188 3.234375 -0.109375 C 2.929688 0.015625 2.5625 0.078125 2.125 0.078125 Z M 2.125 0.078125 "/></g></g></g><g fill="#0a3051" fill-opacity="1"><g transform="translate(37.796932, 18.769653)"><g><path d="M 2.703125 -3.703125 C 3.160156 -3.703125 3.523438 -3.566406 3.796875 -3.296875 C 4.078125 -3.023438 4.21875 -2.625 4.21875 -2.09375 L 4.21875 0 L 3.15625 0 L 3.15625 -1.921875 C 3.15625 -2.210938 3.09375 -2.425781 2.96875 -2.5625 C 2.84375 -2.707031 2.660156 -2.78125 2.421875 -2.78125 C 2.148438 -2.78125 1.9375 -2.695312 1.78125 -2.53125 C 1.625 -2.375 1.546875 -2.128906 1.546875 -1.796875 L 1.546875 0 L 0.484375 0 L 0.484375 -3.640625 L 1.5 -3.640625 L 1.5 -3.21875 C 1.632812 -3.375 1.804688 -3.492188 2.015625 -3.578125 C 2.222656 -3.660156 2.453125 -3.703125 2.703125 -3.703125 Z M 2.703125 -3.703125 "/></g></g></g><g fill="#0a3051" fill-opacity="1"><g transform="translate(42.477944, 18.769653)"><g><path d="M 1.953125 -3.703125 C 2.523438 -3.703125 2.960938 -3.566406 3.265625 -3.296875 C 3.566406 -3.023438 3.71875 -2.617188 3.71875 -2.078125 L 3.71875 0 L 2.71875 0 L 2.71875 -0.453125 C 2.519531 -0.117188 2.148438 0.046875 1.609375 0.046875 C 1.328125 0.046875 1.082031 0 0.875 -0.09375 C 0.675781 -0.1875 0.519531 -0.316406 0.40625 -0.484375 C 0.300781 -0.648438 0.25 -0.835938 0.25 -1.046875 C 0.25 -1.390625 0.375 -1.65625 0.625 -1.84375 C 0.882812 -2.039062 1.28125 -2.140625 1.8125 -2.140625 L 2.65625 -2.140625 C 2.65625 -2.367188 2.582031 -2.546875 2.4375 -2.671875 C 2.300781 -2.796875 2.09375 -2.859375 1.8125 -2.859375 C 1.625 -2.859375 1.4375 -2.828125 1.25 -2.765625 C 1.0625 -2.703125 0.898438 -2.617188 0.765625 -2.515625 L 0.390625 -3.265625 C 0.585938 -3.398438 0.820312 -3.503906 1.09375 -3.578125 C 1.375 -3.660156 1.660156 -3.703125 1.953125 -3.703125 Z M 1.875 -0.65625 C 2.0625 -0.65625 2.222656 -0.695312 2.359375 -0.78125 C 2.492188 -0.863281 2.59375 -0.988281 2.65625 -1.15625 L 2.65625 -1.53125 L 1.9375 -1.53125 C 1.5 -1.53125 1.28125 -1.382812 1.28125 -1.09375 C 1.28125 -0.957031 1.332031 -0.847656 1.4375 -0.765625 C 1.539062 -0.691406 1.6875 -0.65625 1.875 -0.65625 Z M 1.875 -0.65625 "/></g></g></g><g fill="#0a3051" fill-opacity="1"><g transform="translate(46.657665, 18.769653)"><g><path d="M 2.640625 -3.703125 C 2.984375 -3.703125 3.289062 -3.625 3.5625 -3.46875 C 3.84375 -3.3125 4.0625 -3.09375 4.21875 -2.8125 C 4.382812 -2.53125 4.46875 -2.203125 4.46875 -1.828125 C 4.46875 -1.453125 4.382812 -1.117188 4.21875 -0.828125 C 4.0625 -0.546875 3.84375 -0.328125 3.5625 -0.171875 C 3.289062 -0.0234375 2.984375 0.046875 2.640625 0.046875 C 2.179688 0.046875 1.816406 -0.0976562 1.546875 -0.390625 L 1.546875 1.3125 L 0.484375 1.3125 L 0.484375 -3.640625 L 1.5 -3.640625 L 1.5 -3.234375 C 1.757812 -3.546875 2.140625 -3.703125 2.640625 -3.703125 Z M 2.46875 -0.8125 C 2.738281 -0.8125 2.957031 -0.898438 3.125 -1.078125 C 3.300781 -1.265625 3.390625 -1.515625 3.390625 -1.828125 C 3.390625 -2.128906 3.300781 -2.367188 3.125 -2.546875 C 2.957031 -2.734375 2.738281 -2.828125 2.46875 -2.828125 C 2.195312 -2.828125 1.972656 -2.734375 1.796875 -2.546875 C 1.617188 -2.367188 1.53125 -2.128906 1.53125 -1.828125 C 1.53125 -1.515625 1.617188 -1.265625 1.796875 -1.078125 C 1.972656 -0.898438 2.195312 -0.8125 2.46875 -0.8125 Z M 2.46875 -0.8125 "/></g></g></g><g fill="#ee8301" fill-opacity="1"><g transform="translate(51.336541, 18.769653)"><g><path d="M 2.125 0.078125 C 1.75 0.078125 1.382812 0.03125 1.03125 -0.0625 C 0.6875 -0.164062 0.40625 -0.300781 0.1875 -0.46875 L 0.5625 -1.296875 C 0.769531 -1.148438 1.007812 -1.03125 1.28125 -0.9375 C 1.5625 -0.84375 1.84375 -0.796875 2.125 -0.796875 C 2.4375 -0.796875 2.664062 -0.84375 2.8125 -0.9375 C 2.96875 -1.03125 3.046875 -1.15625 3.046875 -1.3125 C 3.046875 -1.425781 3 -1.519531 2.90625 -1.59375 C 2.820312 -1.664062 2.707031 -1.722656 2.5625 -1.765625 C 2.425781 -1.816406 2.242188 -1.867188 2.015625 -1.921875 C 1.648438 -2.003906 1.351562 -2.085938 1.125 -2.171875 C 0.894531 -2.265625 0.695312 -2.40625 0.53125 -2.59375 C 0.363281 -2.78125 0.28125 -3.03125 0.28125 -3.34375 C 0.28125 -3.625 0.351562 -3.875 0.5 -4.09375 C 0.65625 -4.320312 0.882812 -4.5 1.1875 -4.625 C 1.488281 -4.757812 1.851562 -4.828125 2.28125 -4.828125 C 2.582031 -4.828125 2.878906 -4.789062 3.171875 -4.71875 C 3.460938 -4.644531 3.71875 -4.539062 3.9375 -4.40625 L 3.59375 -3.578125 C 3.15625 -3.828125 2.71875 -3.953125 2.28125 -3.953125 C 1.96875 -3.953125 1.738281 -3.898438 1.59375 -3.796875 C 1.445312 -3.691406 1.375 -3.5625 1.375 -3.40625 C 1.375 -3.238281 1.457031 -3.113281 1.625 -3.03125 C 1.800781 -2.957031 2.0625 -2.882812 2.40625 -2.8125 C 2.769531 -2.71875 3.066406 -2.628906 3.296875 -2.546875 C 3.523438 -2.460938 3.722656 -2.328125 3.890625 -2.140625 C 4.054688 -1.953125 4.140625 -1.703125 4.140625 -1.390625 C 4.140625 -1.117188 4.0625 -0.867188 3.90625 -0.640625 C 3.757812 -0.421875 3.535156 -0.242188 3.234375 -0.109375 C 2.929688 0.015625 2.5625 0.078125 2.125 0.078125 Z M 2.125 0.078125 "/></g></g></g><g fill="#0a3051" fill-opacity="1"><g transform="translate(55.658631, 18.769653)"><g><path d="M 2.640625 -3.703125 C 2.984375 -3.703125 3.289062 -3.625 3.5625 -3.46875 C 3.84375 -3.3125 4.0625 -3.09375 4.21875 -2.8125 C 4.382812 -2.53125 4.46875 -2.203125 4.46875 -1.828125 C 4.46875 -1.453125 4.382812 -1.117188 4.21875 -0.828125 C 4.0625 -0.546875 3.84375 -0.328125 3.5625 -0.171875 C 3.289062 -0.0234375 2.984375 0.046875 2.640625 0.046875 C 2.179688 0.046875 1.816406 -0.0976562 1.546875 -0.390625 L 1.546875 1.3125 L 0.484375 1.3125 L 0.484375 -3.640625 L 1.5 -3.640625 L 1.5 -3.234375 C 1.757812 -3.546875 2.140625 -3.703125 2.640625 -3.703125 Z M 2.46875 -0.8125 C 2.738281 -0.8125 2.957031 -0.898438 3.125 -1.078125 C 3.300781 -1.265625 3.390625 -1.515625 3.390625 -1.828125 C 3.390625 -2.128906 3.300781 -2.367188 3.125 -2.546875 C 2.957031 -2.734375 2.738281 -2.828125 2.46875 -2.828125 C 2.195312 -2.828125 1.972656 -2.734375 1.796875 -2.546875 C 1.617188 -2.367188 1.53125 -2.128906 1.53125 -1.828125 C 1.53125 -1.515625 1.617188 -1.265625 1.796875 -1.078125 C 1.972656 -0.898438 2.195312 -0.8125 2.46875 -0.8125 Z M 2.46875 -0.8125 "/></g></g></g><g fill="#0a3051" fill-opacity="1"><g transform="translate(60.332873, 18.769653)"><g><path d="M 1.953125 -3.703125 C 2.523438 -3.703125 2.960938 -3.566406 3.265625 -3.296875 C 3.566406 -3.023438 3.71875 -2.617188 3.71875 -2.078125 L 3.71875 0 L 2.71875 0 L 2.71875 -0.453125 C 2.519531 -0.117188 2.148438 0.046875 1.609375 0.046875 C 1.328125 0.046875 1.082031 0 0.875 -0.09375 C 0.675781 -0.1875 0.519531 -0.316406 0.40625 -0.484375 C 0.300781 -0.648438 0.25 -0.835938 0.25 -1.046875 C 0.25 -1.390625 0.375 -1.65625 0.625 -1.84375 C 0.882812 -2.039062 1.28125 -2.140625 1.8125 -2.140625 L 2.65625 -2.140625 C 2.65625 -2.367188 2.582031 -2.546875 2.4375 -2.671875 C 2.300781 -2.796875 2.09375 -2.859375 1.8125 -2.859375 C 1.625 -2.859375 1.4375 -2.828125 1.25 -2.765625 C 1.0625 -2.703125 0.898438 -2.617188 0.765625 -2.515625 L 0.390625 -3.265625 C 0.585938 -3.398438 0.820312 -3.503906 1.09375 -3.578125 C 1.375 -3.660156 1.660156 -3.703125 1.953125 -3.703125 Z M 1.875 -0.65625 C 2.0625 -0.65625 2.222656 -0.695312 2.359375 -0.78125 C 2.492188 -0.863281 2.59375 -0.988281 2.65625 -1.15625 L 2.65625 -1.53125 L 1.9375 -1.53125 C 1.5 -1.53125 1.28125 -1.382812 1.28125 -1.09375 C 1.28125 -0.957031 1.332031 -0.847656 1.4375 -0.765625 C 1.539062 -0.691406 1.6875 -0.65625 1.875 -0.65625 Z M 1.875 -0.65625 "/></g></g></g><g fill="#0a3051" fill-opacity="1"><g transform="translate(64.512593, 18.769653)"><g><path d="M 1.5 -3.171875 C 1.625 -3.347656 1.789062 -3.476562 2 -3.5625 C 2.21875 -3.65625 2.46875 -3.703125 2.75 -3.703125 L 2.75 -2.71875 C 2.632812 -2.726562 2.554688 -2.734375 2.515625 -2.734375 C 2.210938 -2.734375 1.972656 -2.648438 1.796875 -2.484375 C 1.628906 -2.316406 1.546875 -2.0625 1.546875 -1.71875 L 1.546875 0 L 0.484375 0 L 0.484375 -3.640625 L 1.5 -3.640625 Z M 1.5 -3.171875 "/></g></g></g><g fill="#0a3051" fill-opacity="1"><g transform="translate(67.432304, 18.769653)"><g><path d="M 2.0625 -1.4375 L 1.546875 -0.921875 L 1.546875 0 L 0.484375 0 L 0.484375 -5.03125 L 1.546875 -5.03125 L 1.546875 -2.1875 L 3.09375 -3.640625 L 4.359375 -3.640625 L 2.828125 -2.109375 L 4.484375 0 L 3.203125 0 Z M 2.0625 -1.4375 "/></g></g></g></svg>